<?xml version="1.0" standalone="no"?>
<!DOCTYPE svg PUBLIC "-//W3C//DTD SVG 20010904//EN"
 "http://www.w3.org/TR/2001/REC-SVG-20010904/DTD/svg10.dtd">
<svg version="1.0" xmlns="http://www.w3.org/2000/svg"
 width="260.000000pt" height="260.000000pt" viewBox="0 0 260.000000 260.000000"
 preserveAspectRatio="xMidYMid meet">
<metadata>
Created by potrace 1.14, written by Peter Selinger 2001-2017
</metadata>
<g transform="translate(0.000000,260.000000) scale(0.100000,-0.100000)"
fill="#000000" stroke="none">
<path d="M0 1300 l0 -1300 1300 0 1300 0 0 1300 0 1300 -1300 0 -1300 0 0
-1300z m1084 733 c20 -26 21 -42 26 -243 l5 -215 188 -3 187 -2 0 183 c0 170
1 184 20 200 11 9 20 25 20 35 0 24 19 42 46 42 12 0 24 7 28 15 4 12 31 15
150 15 139 0 146 -1 170 -24 l26 -23 0 -753 0 -753 -26 -23 c-14 -14 -37 -24
-54 -24 l-29 0 -3 148 c-3 145 -3 147 -26 150 -13 2 -31 1 -39 -2 -14 -6 -13
-9 5 -27 30 -27 31 -98 2 -124 -11 -10 -20 -29 -20 -41 0 -17 -7 -25 -25 -30
-44 -11 -55 9 -55 102 l0 84 -35 0 c-34 0 -35 -1 -35 -39 0 -22 -3 -46 -6 -55
-10 -26 -53 -19 -85 13 l-29 29 0 236 0 236 -187 -2 -188 -3 -5 -196 -5 -196
-43 -47 -42 -46 -158 0 -158 0 -27 28 -27 28 0 632 0 632 33 30 c17 16 39 30
48 30 9 0 22 7 29 15 10 12 41 15 157 15 l145 0 22 -27z"/>
</g>
</svg>
